<?xml version="1.0" encoding="UTF-8"?>
<svg version="1.1" xmlns="http://www.w3.org/2000/svg" width="193" height="221">
<path d="M0 0 C14.52 0 29.04 0 44 0 C45.125 9 45.125 9 45.02172852 13.0390625 C45.00163223 13.93939209 44.98153595 14.83972168 44.96083069 15.76733398 C44.93379562 16.71036377 44.90676056 17.65339355 44.87890625 18.625 C44.84348976 20.10625366 44.84348976 20.10625366 44.80735779 21.61743164 C44.73130569 24.7451224 44.64703278 27.87252812 44.5625 31 C44.50922068 33.13149686 44.45648077 35.26300729 44.40429688 37.39453125 C44.27577059 42.59652724 44.1405096 47.79831462 44 53 C50.55411772 49.45507581 57.06574235 45.84532226 63.5378418 42.15283203 C78.2971854 33.73986948 78.2971854 33.73986948 85.1875 30.125 C86.47720703 29.44824219 86.47720703 29.44824219 87.79296875 28.7578125 C90.49071933 27.83150522 91.38066936 27.8938224 94 29 C95.81176758 31.30981445 95.81176758 31.30981445 97.64453125 34.36328125 C98.32193359 35.47896484 98.99933594 36.59464844 99.69726562 37.74414062 C100.40257201 38.93345842 101.10764927 40.12291211 101.8125 41.3125 C102.50474681 42.45965648 103.19809642 43.60614825 103.89257812 44.75195312 C108.33741508 52.12357013 112.68128358 59.55396645 117 67 C113.1684606 71.25479085 109.35116663 73.65768167 104.25 76.1875 C98.07747924 79.34942875 92.02765678 82.64897331 86.0625 86.1875 C85.40217773 86.57897217 84.74185547 86.97044434 84.06152344 87.3737793 C82.03841765 88.57823649 80.01872437 89.78821394 78 91 C77.10007324 91.53963379 76.20014648 92.07926758 75.27294922 92.63525391 C72.84826286 94.0895541 70.42396686 95.54450099 68 97 C68.5355249 97.31525635 69.0710498 97.6305127 69.62280273 97.95532227 C75.30857506 101.30431125 80.98850999 104.66304816 86.66552734 108.02685547 C88.93007576 109.36688185 91.19570054 110.704851 93.46337891 112.03955078 C96.89670031 114.0605491 100.32343297 116.09256934 103.75 118.125 C105.38279907 119.08321655 105.38279907 119.08321655 107.04858398 120.06079102 C108.05864502 120.66205811 109.06870605 121.2633252 110.109375 121.8828125 C111.00624023 122.41277832 111.90310547 122.94274414 112.82714844 123.48876953 C115 125 115 125 117 128 C113.60130291 134.27926589 109.96732166 140.35827918 106.125 146.375 C105.60196289 147.19846924 105.07892578 148.02193848 104.54003906 148.87036133 C103.02898645 151.24837688 101.51474963 153.62433833 100 156 C99.22109462 157.22509544 98.44241814 158.45033647 97.6640625 159.67578125 C96.11156208 162.11859314 94.55712683 164.56013577 93 167 C88.32042434 165.26716703 83.97074322 163.00621037 79.5625 160.6875 C78.33950195 160.04566772 78.33950195 160.04566772 77.09179688 159.39086914 C69.28783468 155.24372584 61.691363 150.76473998 54.12329102 146.20385742 C53.23697998 145.67123291 52.35066895 145.1386084 51.4375 144.58984375 C50.25994141 143.87622681 50.25994141 143.87622681 49.05859375 143.14819336 C46.91240747 141.86750275 46.91240747 141.86750275 44 141 C44.01474869 141.91010834 44.02949738 142.82021667 44.04469299 143.75790405 C44.18256933 152.32200564 44.31554193 160.88616615 44.4429636 169.45042992 C44.50865123 173.85372 44.57625542 178.25696349 44.64819336 182.66015625 C44.71750768 186.90703117 44.78184808 191.15395463 44.84269524 195.40095901 C44.86682801 197.0237465 44.89277315 198.64650805 44.92053413 200.26923752 C44.9590198 202.53670951 44.99114324 204.80418699 45.02172852 207.07177734 C45.04171402 208.36417328 45.06169952 209.65656921 45.08229065 210.98812866 C45 214 45 214 44 216 C38.07381443 216.19225812 32.14743475 216.37098213 26.22045898 216.53710938 C24.20374578 216.59555071 22.18713667 216.6577059 20.1706543 216.72363281 C17.27411855 216.81769006 14.37747249 216.89843632 11.48046875 216.9765625 C10.12564644 217.02485703 10.12564644 217.02485703 8.74345398 217.0741272 C7.90280899 217.09429901 7.062164 217.11447083 6.19604492 217.13525391 C5.45658127 217.15746002 4.71711761 217.17966614 3.95524597 217.20254517 C2 217 2 217 -1 215 C-1.36749268 212.44178772 -1.36749268 212.44178772 -1.35644531 209.16430664 C-1.35944641 207.93865494 -1.36244751 206.71300323 -1.36553955 205.45021057 C-1.35352142 204.10352168 -1.34103784 202.75683686 -1.328125 201.41015625 C-1.32506514 200.02689316 -1.32319075 198.64362699 -1.32244873 197.26036072 C-1.31783811 194.35240984 -1.30339776 191.44473469 -1.28125 188.53686523 C-1.25320422 184.83865614 -1.2420624 181.14066619 -1.2375679 177.44236088 C-1.23236176 173.88993197 -1.21784215 170.3375561 -1.203125 166.78515625 C-1.19887512 165.4701564 -1.19462524 164.15515656 -1.19024658 162.80030823 C-1.13417491 155.48157326 -0.81603913 148.2748582 0 141 C-6.734791 144.24297445 -13.13072726 147.94672318 -19.5625 151.75 C-23.70451754 154.17323835 -27.85136293 156.58811466 -32 159 C-33.24209229 159.72413086 -33.24209229 159.72413086 -34.50927734 160.46289062 C-36.57978286 161.66039956 -38.66107689 162.83500825 -40.75 164 C-41.87921875 164.639375 -43.0084375 165.27875 -44.171875 165.9375 C-47 167 -47 167 -49.296875 166.36328125 C-51.79155533 164.36639264 -52.64995763 161.86884004 -54 159 C-54.598125 158.278125 -55.19625 157.55625 -55.8125 156.8125 C-57.8170181 154.23526244 -59.22964562 151.8134007 -60.75 148.9375 C-63.59669701 143.56445041 -66.88158031 138.60939654 -70.36328125 133.62890625 C-71.80869197 131.30727995 -72.56497132 129.66691496 -73 127 C-68.85092201 123.44014019 -64.42932688 120.84941286 -59.6875 118.1875 C-47.90479332 111.48020391 -36.45740657 104.24454068 -25 97 C-30.85324687 93.00973874 -36.79063343 89.26957157 -42.9375 85.75 C-43.74437256 85.28400391 -44.55124512 84.81800781 -45.38256836 84.33789062 C-49.61782673 81.90153821 -53.87387567 79.51019804 -58.1640625 77.171875 C-58.98656494 76.72231445 -59.80906738 76.27275391 -60.65649414 75.80957031 C-62.23007955 74.95307999 -63.80727583 74.10318231 -65.38842773 73.26074219 C-66.09684814 72.87563477 -66.80526855 72.49052734 -67.53515625 72.09375 C-68.46920288 71.59391602 -68.46920288 71.59391602 -69.42211914 71.08398438 C-71 70 -71 70 -73 67 C-70.19143069 60.9169236 -67.04628872 55.47299533 -63.09765625 50.06640625 C-61.37502849 47.54822601 -59.79718654 45.02600635 -58.24609375 42.40234375 C-57.76221191 41.58636719 -57.27833008 40.77039062 -56.77978516 39.9296875 C-55.812062 38.28600731 -54.85443978 36.63633245 -53.90771484 34.98046875 C-53.45992676 34.2225 -53.01213867 33.46453125 -52.55078125 32.68359375 C-51.95777222 31.65576782 -51.95777222 31.65576782 -51.3527832 30.60717773 C-49.65400275 28.58893703 -48.60317672 28.24807112 -46 28 C-43.7103487 28.96037305 -41.70467668 29.96228995 -39.5625 31.1875 C-38.9236084 31.54046143 -38.2847168 31.89342285 -37.62646484 32.25708008 C-35.40874957 33.48952232 -33.20387651 34.74298426 -31 36 C-30.13906738 36.48855469 -29.27813477 36.97710937 -28.39111328 37.48046875 C-23.15385487 40.45445994 -17.92721786 43.44628503 -12.71142578 46.45776367 C-8.82437392 48.66868629 -4.91180905 50.83325751 -1 53 C-1.00222061 52.36550934 -1.00444122 51.73101868 -1.00672913 51.07730103 C-1.02880045 44.49164389 -1.04391437 37.90599722 -1.05493164 31.3203125 C-1.05996989 28.86034722 -1.0668006 26.40038495 -1.07543945 23.94042969 C-1.08752723 20.41079975 -1.09323329 16.88120931 -1.09765625 13.3515625 C-1.10281754 12.24632233 -1.10797882 11.14108215 -1.11329651 10.00234985 C-1.11337204 8.98144257 -1.11344757 7.96053528 -1.11352539 6.90869141 C-1.115746 6.00712311 -1.11796661 5.10555481 -1.12025452 4.17666626 C-1 2 -1 2 0 0 Z M17.296875 22.046875 C15.28917765 25.07051558 15.68522289 28.19227478 15.8125 31.6875 C15.82603516 32.38939453 15.83957031 33.09128906 15.85351562 33.81445312 C15.88879818 35.54329829 15.94260417 37.27174765 16 39 C22.93 39.495 22.93 39.495 30 40 C30.10826289 37.5821288 30.18739789 35.16912444 30.25 32.75 C30.28351563 32.06808594 30.31703125 31.38617188 30.3515625 30.68359375 C30.41836702 27.24316089 30.2596674 25.35584051 28.20703125 22.54296875 C24.78708832 20.1520352 20.93857447 19.80839918 17.296875 22.046875 Z M6.23046875 47.453125 C2.74731542 51.83194633 1.45353421 56.32222886 1.72265625 61.8984375 C2.80219084 70.07857284 6.24392151 75.21238135 12 81 C12.99 80.505 12.99 80.505 14 80 C13.63732254 73.14878852 13.63732254 73.14878852 11.375 66.75 C9.65933919 63.31867838 9.84927655 61.6165594 11 58 C15.1363499 55.2424334 19.09456279 55.22551806 23.96875 54.66015625 C27.06051302 53.98682126 28.24059936 53.59146376 30 51 C29.75546876 47.65807308 29.39456443 46.39456443 27 44 C19.95130033 43.19029448 11.79769229 42.3581852 6.23046875 47.453125 Z M22.4375 58 C21.42558594 58.185625 20.41367188 58.37125 19.37109375 58.5625 C18.19740234 58.7790625 18.19740234 58.7790625 17 59 C16.86876818 73.70402097 17.15159138 88.31950088 18 103 C21.78641324 101.17660794 25.28191604 99.27168902 28 96 C29.65393706 88.1726467 29.11041622 79.96855829 29.0625 72 C29.05747576 70.54297029 29.05291449 69.0859389 29.04882812 67.62890625 C29.03789388 64.0859023 29.02068 60.54296203 29 57 C26.80755472 57 24.5832232 57.60538424 22.4375 58 Z M34 78 C33.96261719 78.92941406 33.92523438 79.85882813 33.88671875 80.81640625 C33.05633494 96.43087821 33.05633494 96.43087821 26.5 102.4375 C23.20731955 105.14589704 19.77284855 107.63597736 16.3125 110.125 C9.15364189 114.94747459 9.15364189 114.94747459 4.9375 122.1875 C5.02071376 127.26353911 6.41419439 131.61756322 9 136 C9.99 136.33 10.98 136.66 12 137 C12.28875 135.9275 12.5775 134.855 12.875 133.75 C14.54545455 128.18181818 14.54545455 128.18181818 16 126 C17.32721788 125.32124017 18.66213184 124.65751882 20 124 C34.5753945 115.38970921 34.5753945 115.38970921 43.44140625 101.6171875 C44.68296045 95.80011537 43.99680427 90.40471805 41.25 85.125 C39.0635711 82.08829319 36.94617384 80.25353032 34 78 Z M21 128 C20.17181763 128.58454956 20.17181763 128.58454956 19.3269043 129.1809082 C17.27096862 131.99945039 17.63123339 134.94225943 17.70703125 138.29296875 C17.71127609 138.99899734 17.71552094 139.70502594 17.71989441 140.43244934 C17.73666966 142.68452303 17.77431757 144.93569742 17.8125 147.1875 C17.82754843 148.71548185 17.84123656 150.24347776 17.85351562 151.77148438 C17.88656911 155.51466872 17.93834168 159.25718196 18 163 C22.45448624 161.60001861 25.11075943 159.68069209 28 156 C28.77506771 152.43680623 28.77506771 152.43680623 28.70703125 148.51171875 C28.72215256 147.80852005 28.73727386 147.10532135 28.75285339 146.3808136 C28.79561495 144.14937997 28.80455593 141.91930191 28.8125 139.6875 C28.83565371 138.16858405 28.86102089 136.64970012 28.88867188 135.13085938 C28.95140606 131.42059867 28.98383444 127.71078915 29 124 C25.68809892 124 23.62847558 126.12251745 21 128 Z M33 143 C32.96261719 143.80824219 32.92523438 144.61648437 32.88671875 145.44921875 C32.82097656 146.51785156 32.75523438 147.58648437 32.6875 148.6875 C32.62949219 149.74324219 32.57148437 150.79898438 32.51171875 151.88671875 C31.09585468 160.50079251 23.68371384 165.37875752 17.0859375 170.25390625 C13.96729601 172.86445447 12.28679299 175.13962104 11 179 C10.8809314 180.78879802 10.82477887 182.5822856 10.8125 184.375 C10.79832031 185.31085938 10.78414063 186.24671875 10.76953125 187.2109375 C11.01331892 190.16118154 11.76887492 192.32364112 13 195 C14.95339366 192.06990952 15.27361264 190.94836894 15.75 187.625 C16.59284634 183.64239018 17.74708331 181.62066791 21.15625 179.1640625 C22.5030558 178.31374867 23.85848485 177.47704972 25.21875 176.6484375 C31.76505988 172.56790434 35.53987555 168.38037335 38 161 C38.77660218 153.83234382 37.65946852 149.17535312 34 143 C33.67 143 33.34 143 33 143 Z M20.49609375 183.67578125 C17.33709045 188.58337124 18.24663565 195.42643719 19 201 C19.66 201.66 20.32 202.32 21 203 C23.53951544 202.90888062 23.53951544 202.90888062 26 202 C28.10209857 198.84685215 28.2434761 198.13896919 28.1953125 194.55078125 C28.18886719 193.70322266 28.18242188 192.85566406 28.17578125 191.98242188 C28.15902344 191.10134766 28.14226562 190.22027344 28.125 189.3125 C28.11597656 188.41982422 28.10695313 187.52714844 28.09765625 186.60742188 C28.07409748 184.40467686 28.04120329 182.20247412 28 180 C24.73861919 180 22.91510621 181.59874976 20.49609375 183.67578125 Z " fill="#CF1D0D" transform="translate(73,1)"/>
<path d="M0 0 C0.33 0 0.66 0 1 0 C1 5.94 1 11.88 1 18 C2.44375 16.88625 3.8875 15.7725 5.375 14.625 C6.59316406 13.68527344 6.59316406 13.68527344 7.8359375 12.7265625 C11.19814697 10.04407769 12.52196135 8.0118192 14 4 C16 6 16 6 16.0625 9.1875 C14.10109871 16.22546935 8.13732637 20.43178699 2 24 C1.34 24 0.68 24 0 24 C0 23.34 0 22.68 0 22 C1.32 21.67 2.64 21.34 4 21 C4 20.34 4 19.68 4 19 C2.35 19.33 0.7 19.66 -1 20 C-0.67 13.4 -0.34 6.8 0 0 Z " fill="#B5180D" transform="translate(90,86)"/>
<path d="M0 0 C3 1 3 1 4 3 C4.08372659 4.52148326 4.10730027 6.04655778 4.09765625 7.5703125 C4.09443359 8.46621094 4.09121094 9.36210937 4.08789062 10.28515625 C4.07951172 11.22230469 4.07113281 12.15945312 4.0625 13.125 C4.05798828 14.06988281 4.05347656 15.01476562 4.04882812 15.98828125 C4.03702357 18.32558387 4.02055759 20.66276061 4 23 C3.67 23 3.34 23 3 23 C3 16.73 3 10.46 3 4 C-2.54239568 7.41165159 -2.54239568 7.41165159 -5 10 C-5.30599063 12.56916657 -5.51087087 15.04758384 -5.625 17.625 C-5.66367188 18.33140625 -5.70234375 19.0378125 -5.7421875 19.765625 C-5.83647724 21.50998524 -5.91932891 23.25495691 -6 25 C-6.33 25 -6.66 25 -7 25 C-7.33 22.03 -7.66 19.06 -8 16 C-8.66 16 -9.32 16 -10 16 C-10.06334445 11.92785698 -10.10787505 8.35283235 -7.4453125 5.1015625 C-5.07763072 3.08755933 -2.78205002 1.39102501 0 0 Z " fill="#B0241A" transform="translate(98,177)"/>
<path d="M0 0 C1.41655793 -0.0272415 2.83327045 -0.04650467 4.25 -0.0625 C5.43335938 -0.07990234 5.43335938 -0.07990234 6.640625 -0.09765625 C8.90691002 -0.00385306 10.8288895 0.36758937 13 1 C13 2.32 13 3.64 13 5 C13.66 5.33 14.32 5.66 15 6 C15.37168142 12.56637168 15.37168142 12.56637168 13.5 14.75 C13.005 15.1625 12.51 15.575 12 16 C12 16.99 12 17.98 12 19 C10.68 19 9.36 19 8 19 C8 18.34 8 17.68 8 17 C7.34 17 6.68 17 6 17 C6 16.34 6 15.68 6 15 C7.98 14.34 9.96 13.68 12 13 C12.67958603 10.60280568 12.67958603 10.60280568 13 8 C10.08490707 5.08490707 7.80859589 5.66479016 3.75 5.625 C1.79320313 5.58246094 1.79320313 5.58246094 -0.203125 5.5390625 C-5.42816774 6.17337839 -8.53352957 8.24023549 -11.875 12.25 C-12.24625 12.8275 -12.6175 13.405 -13 14 C-13 12.02 -13 10.04 -13 8 C-11.35 7.67 -9.7 7.34 -8 7 C-8 6.01 -8 5.02 -8 4 C-0.08 3.505 -0.08 3.505 8 3 C8 2.34 8 1.68 8 1 C5.36 1 2.72 1 0 1 C0 0.67 0 0.34 0 0 Z " fill="#B11A14" transform="translate(89,40)"/>
<path d="M0 0 C0.99 0 1.98 0 3 0 C1.62097984 3.77022754 -0.12037266 6.9538304 -2.3125 10.3125 C-2.92867187 11.26382813 -3.54484375 12.21515625 -4.1796875 13.1953125 C-4.78039062 14.12085938 -5.38109375 15.04640625 -6 16 C-7.67647494 18.66067416 -9.33778377 21.33038 -11 24 C-13.475 23.01 -13.475 23.01 -16 22 C-16 21.67 -16 21.34 -16 21 C-14.35 20.67 -12.7 20.34 -11 20 C-10.67 17.69 -10.34 15.38 -10 13 C-9.34 13 -8.68 13 -8 13 C-7.9175 12.21625 -7.835 11.4325 -7.75 10.625 C-7 8 -7 8 -4.9375 6.6875 C-4.298125 6.460625 -3.65875 6.23375 -3 6 C-3 5.34 -3 4.68 -3 4 C-2.01 4 -1.02 4 0 4 C0 2.68 0 1.36 0 0 Z " fill="#C41E0F" transform="translate(177,144)"/>
<path d="M0 0 C1.65 0.33 3.3 0.66 5 1 C4.67854004 1.50756836 4.35708008 2.01513672 4.02587891 2.53808594 C2.66449643 5.8051447 2.64520269 8.90529432 2.5859375 12.390625 C2.56657135 13.09523865 2.5472052 13.79985229 2.5272522 14.52581787 C2.46767265 16.76709039 2.42115877 19.00841489 2.375 21.25 C2.33680021 22.77345938 2.29774731 24.29689762 2.2578125 25.8203125 C2.16198982 29.54668106 2.07787893 33.27320835 2 37 C1.67 37 1.34 37 1 37 C1 27.76 1 18.52 1 9 C0.34 9 -0.32 9 -1 9 C-1.33 9.66 -1.66 10.32 -2 11 C-2.66 11 -3.32 11 -4 11 C-3.56179109 6.44262737 -3.14958831 3.42346555 0 0 Z " fill="#B61A0F" transform="translate(89,127)"/>
<path d="M0 0 C1.134375 0.020625 2.26875 0.04125 3.4375 0.0625 C3.4375 0.3925 3.4375 0.7225 3.4375 1.0625 C1.4575 1.0625 -0.5225 1.0625 -2.5625 1.0625 C-2.5625 8.3225 -2.5625 15.5825 -2.5625 23.0625 C-3.8825 22.7325 -5.2025 22.4025 -6.5625 22.0625 C-6.5625 18.7625 -6.5625 15.4625 -6.5625 12.0625 C-6.2325 12.0625 -5.9025 12.0625 -5.5625 12.0625 C-5.50191406 11.28003906 -5.44132812 10.49757813 -5.37890625 9.69140625 C-5.29511719 8.67949219 -5.21132812 7.66757813 -5.125 6.625 C-5.04378906 5.61566406 -4.96257812 4.60632812 -4.87890625 3.56640625 C-4.38374436 -0.35209714 -4.14062727 0.07264258 0 0 Z " fill="#AD2117" transform="translate(92.5625,58.9375)"/>
<path d="M0 0 C0.66 0.99 1.32 1.98 2 3 C-3.75539685 7.08184174 -9.44889605 10.36716862 -16 13 C-15.375 9.625 -15.375 9.625 -14 6 C-11 4.625 -11 4.625 -8 4 C-7.34 3.67 -6.68 3.34 -6 3 C-4.00039988 2.960008 -1.99952758 2.95653201 0 3 C0 2.01 0 1.02 0 0 Z " fill="#C52111" transform="translate(188,66)"/>
<path d="M0 0 C2.31 0 4.62 0 7 0 C4.92802434 2.2212569 2.92088004 3.77354751 0.27734375 5.26171875 C-0.42583984 5.65810547 -1.12902344 6.05449219 -1.85351562 6.46289062 C-2.94696289 7.06907227 -2.94696289 7.06907227 -4.0625 7.6875 C-4.79533203 8.10322266 -5.52816406 8.51894531 -6.28320312 8.94726562 C-11.74203356 12 -11.74203356 12 -14 12 C-13.67 10.02 -13.34 8.04 -13 6 C-12.01 6 -11.02 6 -10 6 C-9.01 5.34 -8.02 4.68 -7 4 C-3.8125 3.875 -3.8125 3.875 -1 4 C-0.67 2.68 -0.34 1.36 0 0 Z " fill="#B41F11" transform="translate(51,149)"/>
<path d="M0 0 C0 3 0 3 -1 5 C0.32 5.66 1.64 6.32 3 7 C1.33820116 8.82797873 0.20955589 9.91987569 -2.125 10.8125 C-4.36617977 11.92689868 -4.36617977 11.92689868 -4.75 15.125 C-4.8325 16.07375 -4.915 17.0225 -5 18 C-6.32 17.34 -7.64 16.68 -9 16 C-6.9710013 9.68755959 -4.2021343 5.11327668 0 0 Z " fill="#C52315" transform="translate(9,53)"/>
<path d="M0 0 C1.65 0 3.3 0 5 0 C3.06745228 2.0245738 1.36841312 3.42105792 -1 5 C-0.278125 5.42152344 0.44375 5.84304687 1.1875 6.27734375 C2.115625 6.82519531 3.04375 7.37304688 4 7.9375 C4.928125 8.48277344 5.85625 9.02804688 6.8125 9.58984375 C7.534375 10.05519531 8.25625 10.52054688 9 11 C9 11.33 9 11.66 9 12 C6.69 11.67 4.38 11.34 2 11 C2 10.34 2 9.68 2 9 C1.05125 8.855625 0.1025 8.71125 -0.875 8.5625 C-4 8 -4 8 -6 7 C-5.67 6.01 -5.34 5.02 -5 4 C-2.4375 2.8125 -2.4375 2.8125 0 2 C0 1.34 0 0.68 0 0 Z " fill="#C42113" transform="translate(142,93)"/>
<path d="M0 0 C0.66 0.33 1.32 0.66 2 1 C2 5.62 2 10.24 2 15 C1.01 14.34 0.02 13.68 -1 13 C-1.33 14.65 -1.66 16.3 -2 18 C-2.66 17.67 -3.32 17.34 -4 17 C-4.125 14.125 -4.125 14.125 -4 11 C-3.34 10.34 -2.68 9.68 -2 9 C-1.57862715 7.06008596 -1.57862715 7.06008596 -1.4375 4.9375 C-1 1 -1 1 0 0 Z " fill="#DC1108" transform="translate(105,78)"/>
<path d="M0 0 C0.33 0 0.66 0 1 0 C1.33 3.96 1.66 7.92 2 12 C0.35 12.66 -1.3 13.32 -3 14 C-3.19573608 12.56359829 -3.38127816 11.12580496 -3.5625 9.6875 C-3.66691406 8.88699219 -3.77132812 8.08648437 -3.87890625 7.26171875 C-4 5 -4 5 -3 2 C-2.01 2 -1.02 2 0 2 C0 1.34 0 0.68 0 0 Z " fill="#C31506" transform="translate(90,191)"/>
<path d="M0 0 C4.55384615 -0.36923077 4.55384615 -0.36923077 6.8125 1.5 C7.204375 1.995 7.59625 2.49 8 3 C8.33 2.01 8.66 1.02 9 0 C10.32 0.33 11.64 0.66 13 1 C13 1.99 13 2.98 13 4 C13.99 4.33 14.98 4.66 16 5 C16 6.32 16 7.64 16 9 C10.0942118 7.44584521 5.02261107 4.40465533 0 1 C0 0.67 0 0.34 0 0 Z " fill="#BC1E12" transform="translate(118,141)"/>
<path d="M0 0 C4.75 0.75 4.75 0.75 7 3 C9.58354218 3.16687448 9.58354218 3.16687448 12 3 C12 3.99 12 4.98 12 6 C13.32 6 14.64 6 16 6 C16.33 7.32 16.66 8.64 17 10 C12.56473186 8.69047721 9.00013681 6.95266332 5.125 4.4375 C4.15820312 3.81746094 3.19140625 3.19742188 2.1953125 2.55859375 C1.47085937 2.04425781 0.74640625 1.52992187 0 1 C0 0.67 0 0.34 0 0 Z " fill="#B72319" transform="translate(19,79)"/>
<path d="M0 0 C3.465 1.485 3.465 1.485 7 3 C7 2.34 7 1.68 7 1 C8.32 1.66 9.64 2.32 11 3 C11 6.96 11 10.92 11 15 C10.34 15 9.68 15 9 15 C8.67 11.7 8.34 8.4 8 5 C5.36 4.01 2.72 3.02 0 2 C0 1.34 0 0.68 0 0 Z " fill="#AD2015" transform="translate(65,51)"/>
<path d="M0 0 C-2 2 -2 2 -4.625 2.125 C-5.40875 2.08375 -6.1925 2.0425 -7 2 C-6.67 3.32 -6.34 4.64 -6 6 C-6.99 6 -7.98 6 -9 6 C-9 7.65 -9 9.3 -9 11 C-9.66 10.34 -10.32 9.68 -11 9 C-10.85611045 5.61859562 -10.60498077 3.67220085 -8.3125 1.125 C-5.40422845 -0.28983481 -3.19384754 -0.21776233 0 0 Z " fill="#B61C13" transform="translate(93,56)"/>
<path d="M0 0 C0.66 0 1.32 0 2 0 C2.33 2.31 2.66 4.62 3 7 C2.01 7 1.02 7 0 7 C-0.66 8.32 -1.32 9.64 -2 11 C-2.33 8.69 -2.66 6.38 -3 4 C-2.34 4 -1.68 4 -1 4 C-0.67 2.68 -0.34 1.36 0 0 Z " fill="#C11A0F" transform="translate(113,145)"/>
<path d="M0 0 C1.98 0.99 1.98 0.99 4 2 C4.99 1.34 5.98 0.68 7 0 C7.125 3.375 7.125 3.375 7 7 C6.34 7.66 5.68 8.32 5 9 C4.16396622 7.68921847 3.3312426 6.37632511 2.5 5.0625 C2.0359375 4.33160156 1.571875 3.60070312 1.09375 2.84765625 C0 1 0 1 0 0 Z " fill="#BB220F" transform="translate(12,148)"/>
<path d="M0 0 C2.97 0 5.94 0 9 0 C9 0.33 9 0.66 9 1 C7.948125 1.226875 6.89625 1.45375 5.8125 1.6875 C1.8227134 2.81013226 -0.26806474 4.87778828 -3 8 C-3.66 8.66 -4.32 9.32 -5 10 C-5 8.02 -5 6.04 -5 4 C-3.35 3.67 -1.7 3.34 0 3 C0 2.01 0 1.02 0 0 Z " fill="#B7221A" transform="translate(81,44)"/>
<path d="M0 0 C1.65 0 3.3 0 5 0 C5 1.65 5 3.3 5 5 C2.3333581 6.33332095 0.83319697 5.67102033 -2 5 C-1.34 3.35 -0.68 1.7 0 0 Z " fill="#C72010" transform="translate(136,146)"/>
<path d="M0 0 C1.65 0.99 3.3 1.98 5 3 C2.25 9.75 2.25 9.75 0 12 C-0.33 10.02 -0.66 8.04 -1 6 C-0.34 5.67 0.32 5.34 1 5 C0.67 3.35 0.34 1.7 0 0 Z " fill="#B72417" transform="translate(185,125)"/>
<path d="M0 0 C0.99 0 1.98 0 3 0 C3.33 3.3 3.66 6.6 4 10 C0 8 0 8 -1 5 C-0.5625 2.3125 -0.5625 2.3125 0 0 Z " fill="#CC140F" transform="translate(84,62)"/>
<path d="M0 0 C3.79588866 0.54226981 5.47211993 2.20127563 8 5 C7.67 5.66 7.34 6.32 7 7 C6.01 6.34 5.02 5.68 4 5 C1.94290404 4.75944532 1.94290404 4.75944532 -0.1875 4.875 C-1.445625 4.91625 -2.70375 4.9575 -4 5 C-4 4.34 -4 3.68 -4 3 C-2.68 2.67 -1.36 2.34 0 2 C0 1.34 0 0.68 0 0 Z " fill="#C31E10" transform="translate(95,18)"/>
<path d="M0 0 C0.33 0 0.66 0 1 0 C1 2.64 1 5.28 1 8 C-0.5 6.625 -0.5 6.625 -2 5 C-2 4.34 -2 3.68 -2 3 C-1.34 3 -0.68 3 0 3 C0 2.01 0 1.02 0 0 Z M-5 4 C-3.515 4.99 -3.515 4.99 -2 6 C-2.33 7.65 -2.66 9.3 -3 11 C-3.66 10.67 -4.32 10.34 -5 10 C-5 8.02 -5 6.04 -5 4 Z " fill="#C30903" transform="translate(106,85)"/>
<path d="M0 0 C0.99 0.33 1.98 0.66 3 1 C3.33 2.65 3.66 4.3 4 6 C4.66 6 5.32 6 6 6 C5.67 7.32 5.34 8.64 5 10 C3.0625 8.9375 3.0625 8.9375 1 7 C0.25 3.3125 0.25 3.3125 0 0 Z " fill="#DD180A" transform="translate(101,18)"/>
<path d="M0 0 C1.32 0.33 2.64 0.66 4 1 C2.35 3.64 0.7 6.28 -1 9 C-3.475 8.01 -3.475 8.01 -6 7 C-6 6.67 -6 6.34 -6 6 C-4.35 5.67 -2.7 5.34 -1 5 C-0.67 3.35 -0.34 1.7 0 0 Z " fill="#A62B26" transform="translate(167,159)"/>
<path d="M0 0 C0.66 0.66 1.32 1.32 2 2 C1.625 5.625 1.625 5.625 1 9 C0.01 9 -0.98 9 -2 9 C-1.125 1.125 -1.125 1.125 0 0 Z " fill="#C91A0F" transform="translate(104,90)"/>
<path d="M0 0 C0.33 0 0.66 0 1 0 C1.74926071 3.66305234 2.2380014 6.42355152 1 10 C-0.32 9.34 -1.64 8.68 -3 8 C-2.01 5.36 -1.02 2.72 0 0 Z " fill="#BA211B" transform="translate(3,61)"/>
<path d="M0 0 C0.66 0.33 1.32 0.66 2 1 C1.42415568 3.38564077 0.77772405 5.66682784 0 8 C-2.33333333 8 -4.66666667 8 -7 8 C-4.69 5.36 -2.38 2.72 0 0 Z " fill="#B72116" transform="translate(114,107)"/>
<path d="M0 0 C0.66 0.66 1.32 1.32 2 2 C1.01 3.485 1.01 3.485 0 5 C0.99 5 1.98 5 3 5 C3 5.66 3 6.32 3 7 C-0.91211733 5.84414715 -3.8745041 4.64465038 -7 2 C-4.03 2.495 -4.03 2.495 -1 3 C-0.67 2.01 -0.34 1.02 0 0 Z " fill="#B52218" transform="translate(16,72)"/>
<path d="M0 0 C1.32 0 2.64 0 4 0 C2.62487859 2.96179996 0.99630574 5.42143842 -1 8 C-1.66 8.99 -2.32 9.98 -3 11 C-3.1875 8.125 -3.1875 8.125 -3 5 C-2.01 4.34 -1.02 3.68 0 3 C0 2.01 0 1.02 0 0 Z " fill="#AC2419" transform="translate(87,169)"/>
<path d="M0 0 C0.33 0.66 0.66 1.32 1 2 C1.99 2.33 2.98 2.66 4 3 C-1.17578125 6.22265625 -1.17578125 6.22265625 -3 7 C-3.99 6.67 -4.98 6.34 -6 6 C-4.68 5.67 -3.36 5.34 -2 5 C-2 4.01 -2 3.02 -2 2 C-1.34 2 -0.68 2 0 2 C0 1.34 0 0.68 0 0 Z " fill="#B22114" transform="translate(29,161)"/>
<path d="M0 0 C0.66 1.32 1.32 2.64 2 4 C0.625 5.5 0.625 5.5 -1 7 C-1.66 7 -2.32 7 -3 7 C-3.33 7.99 -3.66 8.98 -4 10 C-4.33 9.34 -4.66 8.68 -5 8 C-4.00390625 6.0546875 -4.00390625 6.0546875 -2.5625 3.875 C-2.08941406 3.15054688 -1.61632812 2.42609375 -1.12890625 1.6796875 C-0.75636719 1.12539063 -0.38382813 0.57109375 0 0 Z " fill="#B71E12" transform="translate(15,43)"/>
<path d="M0 0 C0.33 0 0.66 0 1 0 C1 3.63 1 7.26 1 11 C0.01 11 -0.98 11 -2 11 C-1.34 7.37 -0.68 3.74 0 0 Z " fill="#B71F0F" transform="translate(90,191)"/>
<path d="M0 0 C1.32 0.66 2.64 1.32 4 2 C2.8125 3.5625 2.8125 3.5625 1 5 C-1.6875 4.6875 -1.6875 4.6875 -4 4 C-2.68 2.68 -1.36 1.36 0 0 Z " fill="#C01C12" transform="translate(30,109)"/>
<path d="M0 0 C1.98 0 3.96 0 6 0 C5.67 1.32 5.34 2.64 5 4 C3.35 3.67 1.7 3.34 0 3 C0 2.01 0 1.02 0 0 Z " fill="#B22920" transform="translate(95,47)"/>
<path d="M0 0 C0.99 0.99 1.98 1.98 3 3 C1.02 3.99 -0.96 4.98 -3 6 C-3.66 5.01 -4.32 4.02 -5 3 C-3.35 2.01 -1.7 1.02 0 0 Z " fill="#C01911" transform="translate(104,173)"/>
<path d="M0 0 C1.32 0.33 2.64 0.66 4 1 C4 1.99 4 2.98 4 4 C2.02 4 0.04 4 -2 4 C-1.34 2.68 -0.68 1.36 0 0 Z " fill="#DB140A" transform="translate(87,82)"/>
<path d="M0 0 C0.99 0 1.98 0 3 0 C1.68775452 3.93673644 0.08089673 6.22719294 -3 9 C-2.67 7.35 -2.34 5.7 -2 4 C-1.34 4 -0.68 4 0 4 C0 2.68 0 1.36 0 0 Z " fill="#AF1E16" transform="translate(177,144)"/>
<path d="M0 0 C0.185625 0.9590625 0.185625 0.9590625 0.375 1.9375 C0.684375 2.9584375 0.684375 2.9584375 1 4 C1.66 4.33 2.32 4.66 3 5 C1.68 5.99 0.36 6.98 -1 8 C-1 7.01 -1 6.02 -1 5 C-1.66 4.67 -2.32 4.34 -3 4 C-2.01 2.68 -1.02 1.36 0 0 Z " fill="#B7211B" transform="translate(101,95)"/>
<path d="M0 0 C0.66 0 1.32 0 2 0 C1.34 1.32 0.68 2.64 0 4 C-2.31 4 -4.62 4 -7 4 C-7 3.01 -7 2.02 -7 1 C-5.824375 1.309375 -5.824375 1.309375 -4.625 1.625 C-3.75875 1.74875 -2.8925 1.8725 -2 2 C-1.34 1.34 -0.68 0.68 0 0 Z " fill="#AD1E1B" transform="translate(100,201)"/>
<path d="M0 0 C0.33 0 0.66 0 1 0 C1.08090971 1.62418745 1.13914995 3.24951745 1.1875 4.875 C1.22230469 5.77992187 1.25710937 6.68484375 1.29296875 7.6171875 C1.19628906 8.40351562 1.09960938 9.18984375 1 10 C0.01 10.66 -0.98 11.32 -2 12 C-1.34 8.04 -0.68 4.08 0 0 Z " fill="#BB1E13" transform="translate(117,94)"/>
<path d="M0 0 C1.65 0.99 3.3 1.98 5 3 C4.01 4.485 4.01 4.485 3 6 C2.01 6 1.02 6 0 6 C0 4.02 0 2.04 0 0 Z " fill="#C32116" transform="translate(165,113)"/>
<path d="M0 0 C0.33 0.66 0.66 1.32 1 2 C0.01 2.495 0.01 2.495 -1 3 C-0.67 3.66 -0.34 4.32 0 5 C-0.99 5.33 -1.98 5.66 -3 6 C-3.99 5.34 -4.98 4.68 -6 4 C-4.02 2.68 -2.04 1.36 0 0 Z " fill="#BE2210" transform="translate(39,104)"/>
<path d="M0 0 C1.65 0 3.3 0 5 0 C2.64722731 2.72426311 0.37503669 3.8141763 -3 5 C-2.67 4.01 -2.34 3.02 -2 2 C-1.34 2 -0.68 2 0 2 C0 1.34 0 0.68 0 0 Z " fill="#B7241C" transform="translate(142,93)"/>
<path d="M0 0 C0.598125 0.350625 1.19625 0.70125 1.8125 1.0625 C0.8225 1.5575 0.8225 1.5575 -0.1875 2.0625 C-0.1875 4.0425 -0.1875 6.0225 -0.1875 8.0625 C-0.5175 8.0625 -0.8475 8.0625 -1.1875 8.0625 C-1.1875 5.7525 -1.1875 3.4425 -1.1875 1.0625 C-2.5075 0.7325 -3.8275 0.4025 -5.1875 0.0625 C-2.1875 -0.9375 -2.1875 -0.9375 0 0 Z " fill="#E40D09" transform="translate(103.1875,55.9375)"/>
</svg>
