<?xml version="1.0" encoding="UTF-8"?>
<svg version="1.1" xmlns="http://www.w3.org/2000/svg" width="1200" height="1200">
<path d="M0 0 C396 0 792 0 1200 0 C1200 396 1200 792 1200 1200 C804 1200 408 1200 0 1200 C0 804 0 408 0 0 Z " fill="#FEFEFE" transform="translate(0,0)"/>
<path d="M0 0 C-2.67744188 2.09807945 -4.62189888 3.39676766 -8 4 C-8 4.66 -8 5.32 -8 6 C-9.765625 7.12109375 -9.765625 7.12109375 -12.25 8.4375 C-19.05406463 12.37517145 -24.38078547 17.57207788 -30 23 C-30.67160156 23.62003906 -31.34320313 24.24007813 -32.03515625 24.87890625 C-40.2769587 32.6701318 -49.39722036 44.19166108 -53 55 C-53.66 55 -54.32 55 -55 55 C-55.4125 56.2375 -55.825 57.475 -56.25 58.75 C-58.16666667 64.5 -60.08333333 70.25 -62 76 C-62.66 76 -63.32 76 -64 76 C-64.18175781 77.01707031 -64.18175781 77.01707031 -64.3671875 78.0546875 C-67.46916472 95.28259173 -67.46916472 95.28259173 -69.0625 100.4375 C-71.32217796 109.02427624 -71.19307542 118.1067378 -71.1875 126.9375 C-71.1884668 128.54709595 -71.1884668 128.54709595 -71.18945312 130.18920898 C-71.1242751 140.20958935 -70.24335265 150.0642802 -69 160 C-67.24919913 159.96679516 -65.49906579 159.89720607 -63.75 159.8125 C-62.77546875 159.77769531 -61.8009375 159.74289062 -60.796875 159.70703125 C-56.94046086 158.73215561 -56.07299867 157.37301478 -54 154 C-52.74642822 151.11404141 -51.7317735 148.17539741 -50.75 145.1875 C-50.481875 144.39923828 -50.21375 143.61097656 -49.9375 142.79882812 C-49.28251673 140.8689667 -48.63998468 138.93488703 -48 137 C-47.34 137 -46.68 137 -46 137 C-45.81824219 136.12988281 -45.81824219 136.12988281 -45.6328125 135.2421875 C-44.66264526 130.71971558 -43.56602217 126.36249034 -42 122 C-41.34 122 -40.68 122 -40 122 C-39.89042969 121.443125 -39.78085937 120.88625 -39.66796875 120.3125 C-38.55724752 114.96658969 -37.02774474 110.06936184 -35 105 C-32.03 105 -29.06 105 -26 105 C-25.32419171 109.01935181 -24.66099739 113.04068815 -24 117.0625 C-23.80921875 118.19623047 -23.6184375 119.32996094 -23.421875 120.49804688 C-22.51320476 126.0636521 -21.73798914 131.35857867 -22 137 C-21.34 137 -20.68 137 -20 137 C-19.28246537 141.87389211 -18.5705671 146.74856267 -17.86376953 151.62402344 C-17.6227865 153.28082222 -17.38029282 154.93740203 -17.13623047 156.59375 C-16.78471232 158.98120384 -16.43872099 161.36940494 -16.09375 163.7578125 C-15.92969666 164.85973434 -15.92969666 164.85973434 -15.7623291 165.98391724 C-15.18479048 170.024073 -14.88774665 173.91959058 -15 178 C-14.34 178 -13.68 178 -13 178 C-12.86722656 179.14339844 -12.73445312 180.28679687 -12.59765625 181.46484375 C-12.4194969 182.9557562 -12.24109918 184.44664018 -12.0625 185.9375 C-11.97548828 186.69224609 -11.88847656 187.44699219 -11.79882812 188.22460938 C-11.65675901 191.92187458 -11.65675901 191.92187458 -10 195 C-7.09985394 181.37017409 -4.29714444 167.74551468 -2 154 C17.35573799 153.82658539 36.65893718 154.3255829 56 155 C56 157.31 56 159.62 56 162 C38.63651131 162.13235918 21.34360216 161.85300123 4 161 C3.86722656 161.94101562 3.73445312 162.88203125 3.59765625 163.8515625 C3.42105469 165.09679687 3.24445313 166.34203125 3.0625 167.625 C2.88847656 168.85476563 2.71445312 170.08453125 2.53515625 171.3515625 C2.06225699 174.57556184 1.54848998 177.78812176 1 181 C0.34 181 -0.32 181 -1 181 C-0.9484375 181.88816406 -0.896875 182.77632812 -0.84375 183.69140625 C-0.84375 189.54981579 -2.29972447 195.23132523 -3.5 200.9375 C-3.73847656 202.09830078 -3.97695313 203.25910156 -4.22265625 204.45507812 C-4.80899975 207.30470751 -5.40161145 210.15288 -6 213 C-8.97 213 -11.94 213 -15 213 C-15.17128418 211.98687744 -15.34256836 210.97375488 -15.51904297 209.92993164 C-16.16157936 206.133149 -16.80716066 202.33688912 -17.45361328 198.54077148 C-17.73177438 196.90484254 -18.00913461 195.2687772 -18.28564453 193.63256836 C-19.9389458 183.47757257 -19.9389458 183.47757257 -22.0390625 173.41015625 C-23.83079811 165.76871152 -24.70515749 157.89681058 -25.82275391 150.1328125 C-26.13822145 147.94991111 -26.45947934 145.76791736 -26.78125 143.5859375 C-26.96751953 142.2973584 -27.15378906 141.0087793 -27.34570312 139.68115234 C-27.99629949 136.02081949 -28.926449 132.55664779 -30 129 C-30.39174154 127.35807097 -30.76957833 125.71267205 -31.125 124.0625 C-31.29257812 123.29035156 -31.46015625 122.51820313 -31.6328125 121.72265625 C-31.75398438 121.15417969 -31.87515625 120.58570313 -32 120 C-32.66 121.65 -33.32 123.3 -34 125 C-34.66 125 -35.32 125 -36 125 C-36.10957031 125.54527344 -36.21914063 126.09054687 -36.33203125 126.65234375 C-37.51009937 132.25535065 -39.087035 137.6054387 -41 143 C-41.66 143 -42.32 143 -43 143 C-43.18175781 143.88751953 -43.18175781 143.88751953 -43.3671875 144.79296875 C-44.26744643 149.03803585 -45.20456621 153.02439661 -47 157 C-47.66 157 -48.32 157 -49 157 C-49.37125 158.3921875 -49.37125 158.3921875 -49.75 159.8125 C-51.08925849 163.22760915 -51.85842485 164.24441389 -55 166 C-56.75 166.6875 -56.75 166.6875 -59 167 C-60.27875 167.226875 -61.5575 167.45375 -62.875 167.6875 C-64.98046875 167.66015625 -64.98046875 167.66015625 -67 167 C-69.66482231 164.01216892 -71.28505554 160.59600889 -73 157 C-76.34816147 149.10267135 -76.34816147 149.10267135 -82 143 C-84.97018151 142.50779849 -87.04421294 142.34233896 -89.59594727 144.09814453 C-91.25275861 145.62565751 -92.78793817 147.21563881 -94.3125 148.875 C-94.84939453 149.43058594 -95.38628906 149.98617187 -95.93945312 150.55859375 C-98.81053245 153.52846105 -98.81053245 153.52846105 -101 157 C-104.62880208 158.0027645 -108.20773661 158.18181619 -111.95703125 158.31640625 C-113.62475586 158.37924805 -113.62475586 158.37924805 -115.32617188 158.44335938 C-116.47666016 158.48267578 -117.62714844 158.52199219 -118.8125 158.5625 C-119.98232422 158.60568359 -121.15214844 158.64886719 -122.35742188 158.69335938 C-125.23817031 158.79918279 -128.11900123 158.90126825 -131 159 C-131 160.98 -131 162.96 -131 165 C-126.97990543 165.07455949 -122.96008267 165.12879358 -118.93945312 165.16479492 C-117.57382184 165.17981428 -116.20823824 165.20023608 -114.84277344 165.22631836 C-112.87196095 165.26300137 -110.90078592 165.27818551 -108.9296875 165.29296875 C-107.74616699 165.3086792 -106.56264648 165.32438965 -105.34326172 165.34057617 C-98.57933476 164.65153878 -94.95914262 161.29090706 -90.625 156.3125 C-90.17511719 155.80138672 -89.72523438 155.29027344 -89.26171875 154.76367188 C-88.16604751 153.51647163 -87.08180071 152.25925023 -86 151 C-82.73431212 153.72308128 -81.13812687 157.31596302 -79.3125 161.0625 C-78.99216797 161.69994141 -78.67183594 162.33738281 -78.34179688 162.99414062 C-76 167.73265925 -76 167.73265925 -76 170 C-75.34 170 -74.68 170 -74 170 C-73.236875 170.78375 -72.47375 171.5675 -71.6875 172.375 C-69.10184324 174.90052521 -67.39158318 175.93407386 -64 177 C-63.505 180.465 -63.505 180.465 -63 184 C-62.34 184 -61.68 184 -61 184 C-60.5978125 185.36318359 -60.5978125 185.36318359 -60.1875 186.75390625 C-56.00972395 200.15302352 -49.48627434 211.73810427 -42.25 223.70703125 C-41 226 -41 226 -41 228 C-40.34 228 -39.68 228 -39 228 C-37.98648336 229.65848177 -36.98879205 231.32665961 -36 233 C-34.69026002 234.3565164 -33.35197858 235.68557638 -32 237 C-30.95163992 238.20253068 -29.91083449 239.41166336 -28.875 240.625 C-20.96558545 250.08901275 -20.96558545 250.08901275 -11 257 C-9.97279576 257.9720347 -8.97254625 258.97328008 -8 260 C-2.47224312 264.67242268 3.44967448 267.96644761 10 271 C10 271.66 10 272.32 10 273 C10.61488281 273.20496094 11.22976563 273.40992188 11.86328125 273.62109375 C15.2421875 274.74739583 18.62109375 275.87369792 22 277 C22 277.66 22 278.32 22 279 C23.258125 279.268125 24.51625 279.53625 25.8125 279.8125 C41.24808282 283.24808282 41.24808282 283.24808282 43 285 C48.29434221 285.92943589 53.57482179 286.28218863 58.9375 286.5625 C59.71673828 286.60568359 60.49597656 286.64886719 61.29882812 286.69335938 C63.19907117 286.79828077 65.09951669 286.8995245 67 287 C66 289 66 289 63.625 290.125 C61 291 61 291 58 291 C58 291.66 58 292.32 58 293 C55.91891315 293.67364661 53.8350329 294.33866798 51.75 295 C50.58984375 295.37125 49.4296875 295.7425 48.234375 296.125 C45 297 45 297 41 297 C41 297.66 41 298.32 41 299 C37.70979189 299.65341008 34.41760467 300.29628521 31.125 300.9375 C30.2071875 301.11990234 29.289375 301.30230469 28.34375 301.49023438 C18.86744983 303.32543335 9.58726346 304.19663198 -0.0625 304.1875 C-1.42169556 304.1862915 -1.42169556 304.1862915 -2.80834961 304.18505859 C-15.36846426 304.07276727 -27.65363262 302.23614361 -40 300 C-40 299.34 -40 298.68 -40 298 C-41.010625 297.938125 -42.02125 297.87625 -43.0625 297.8125 C-49.95110802 296.99035148 -56.49188527 294.29648319 -63 292 C-63 291.34 -63 290.68 -63 290 C-63.85271484 289.74476563 -63.85271484 289.74476563 -64.72265625 289.484375 C-69.96080118 287.84034955 -74.31893656 285.86064988 -79 283 C-80.3101175 282.24584592 -81.62257448 281.49573932 -82.9375 280.75 C-83.948125 280.1725 -84.95875 279.595 -86 279 C-86 278.34 -86 277.68 -86 277 C-86.72960937 276.7421875 -87.45921875 276.484375 -88.2109375 276.21875 C-100.01010597 271.06281084 -110.97983296 258.87849843 -119 249 C-119.82371094 248.00806641 -119.82371094 248.00806641 -120.6640625 246.99609375 C-124.34647253 242.43091419 -127.65978818 237.6501618 -130.875 232.75 C-131.46547119 231.86417236 -131.46547119 231.86417236 -132.06787109 230.96044922 C-134.18804897 227.66891264 -135.54478529 224.90603593 -136 221 C-136.66 221 -137.32 221 -138 221 C-138.67305018 219.39850114 -139.33822227 217.79368971 -140 216.1875 C-140.37125 215.29417969 -140.7425 214.40085937 -141.125 213.48046875 C-142 211 -142 211 -142 208 C-142.66 208 -143.32 208 -144 208 C-146.28953836 201.01424576 -148.42351925 194.35012956 -149 187 C-149.66 187 -150.32 187 -151 187 C-152.7002236 177.35989726 -153.63401206 167.77323338 -154 158 C-154.04302246 156.96214355 -154.04302246 156.96214355 -154.08691406 155.90332031 C-154.56723264 142.7401592 -152.96115692 130.00135767 -151 117 C-150.34 117 -149.68 117 -149 117 C-148.896875 115.72125 -148.79375 114.4425 -148.6875 113.125 C-148.11866692 107.86329406 -146.6625387 103.00852854 -145 98 C-144.34 98 -143.68 98 -143 98 C-142.9175 97.21625 -142.835 96.4325 -142.75 95.625 C-139.99021401 82.28603437 -132.06296963 71.35463016 -124.16308594 60.5859375 C-123.16758628 59.22851395 -122.18057803 57.86487 -121.1953125 56.5 C-117.02346054 50.7934253 -112.27411187 46.13322495 -106.84375 41.625 C-105.40051727 40.35299828 -104.02519835 39.0038643 -102.6796875 37.62890625 C-99.82359168 34.82693469 -96.7998168 32.35979536 -93.625 29.9375 C-93.08617187 29.51662109 -92.54734375 29.09574219 -91.9921875 28.66210938 C-82.01362645 21 -82.01362645 21 -78 21 C-78 20.34 -78 19.68 -78 19 C-76.04350603 18.16235732 -74.08474444 17.33000941 -72.125 16.5 C-71.03445313 16.0359375 -69.94390625 15.571875 -68.8203125 15.09375 C-66 14 -66 14 -64 14 C-64 13.34 -64 12.68 -64 12 C-60.91968584 10.9905304 -57.8353041 9.99410379 -54.75 9 C-53.87730469 8.71382813 -53.00460937 8.42765625 -52.10546875 8.1328125 C-51.26113281 7.86210937 -50.41679687 7.59140625 -49.546875 7.3125 C-48.77182617 7.06113281 -47.99677734 6.80976563 -47.19824219 6.55078125 C-45 6 -45 6 -41 6 C-41 5.34 -41 4.68 -41 4 C-27.15490878 1.44620707 -14.13037368 -0.18324692 0 0 Z " fill="#F22C24" transform="translate(338,448)"/>
<path d="M0 0 C60 0 60 0 68 4 C68 4.66 68 5.32 68 6 C68.680625 6.185625 69.36125 6.37125 70.0625 6.5625 C74.19289945 8.58375931 77.14325458 11.41174295 80 15 C80.9375 17.9375 80.9375 17.9375 81 20 C81.66 20 82.32 20 83 20 C86.92317095 30.31998785 86.0004363 41.1068978 81.6015625 51.12109375 C76.92293761 59.53120727 70.02029293 63.96894842 61 67 C60.01 67 59.02 67 58 67 C58.66 68.98 59.32 70.96 60 73 C60.66 73 61.32 73 62 73 C63.17176518 75.12232979 64.33754785 77.24757791 65.5 79.375 C65.83386719 79.97828125 66.16773438 80.5815625 66.51171875 81.203125 C69 85.7734375 69 85.7734375 69 88 C69.66 88 70.32 88 71 88 C72.18600439 90.13480791 73.37155391 92.26984877 74.5546875 94.40625 C75.50938355 96.11954238 76.4727865 97.82801528 77.4453125 99.53125 C77.89648438 100.3253125 78.34765625 101.119375 78.8125 101.9375 C79.44091797 103.03384766 79.44091797 103.03384766 80.08203125 104.15234375 C81 106 81 106 81 108 C81.66 108 82.32 108 83 108 C86 112.38461538 86 112.38461538 86 115 C80.39 115 74.78 115 69 115 C67.60026042 112.13541667 66.20052083 109.27083333 64.80078125 106.40625 C63.10055507 103.19020396 61.25745537 100.15167323 59.30932617 97.08398438 C56.68370227 92.90491936 54.23511198 88.61898898 51.75 84.35546875 C50.91920546 82.93532934 50.07374326 81.52366594 49.21362305 80.12109375 C48 78 48 78 47.07739258 75.72265625 C45.95076483 73.24225138 45.09059611 71.76507077 43 70 C38.22085529 68.85875787 33.58094937 68.92873753 28.6875 69 C24.170625 69 19.65375 69 15 69 C15 84.18 15 99.36 15 115 C10.05 115 5.1 115 0 115 C0 77.05 0 39.1 0 0 Z " fill="#474235" transform="translate(452,531)"/>
<path d="M0 0 C0.76441406 -0.01611328 1.52882813 -0.03222656 2.31640625 -0.04882812 C12.74318309 -0.05767938 20.3872382 4.5212534 28.125 11.3125 C37.61884104 22.34380517 38.125 33.91852806 38.125 48.3125 C17.335 48.3125 -3.455 48.3125 -24.875 48.3125 C-21.98053902 58.92552361 -20.11019788 64.14570985 -11.8125 70.75 C-5.92348596 73.88245428 -1.03449587 74.59111383 5.5 74.4375 C6.23605469 74.42847656 6.97210937 74.41945313 7.73046875 74.41015625 C9.5287888 74.38680144 11.32693911 74.35093836 13.125 74.3125 C13.125 73.6525 13.125 72.9925 13.125 72.3125 C17.79166667 69.97916667 22.45833333 67.64583333 27.125 65.3125 C29.765 67.2925 32.405 69.2725 35.125 71.3125 C30.82793067 79.90663866 22.93372771 84.1260843 14.125 87.3125 C5.38584836 89.56822258 -4.32787933 89.04757862 -12.875 86.3125 C-12.875 85.6525 -12.875 84.9925 -12.875 84.3125 C-13.59816406 84.23 -14.32132813 84.1475 -15.06640625 84.0625 C-22.4080312 82.10201044 -28.7809215 74.19336798 -32.625 67.859375 C-38.4912941 55.90680077 -40.04099202 41.31108514 -36.875 28.3125 C-36.215 28.3125 -35.555 28.3125 -34.875 28.3125 C-34.7821875 27.075 -34.7821875 27.075 -34.6875 25.8125 C-32.47103732 16.26466075 -25.18760677 8.8890469 -17.25390625 3.609375 C-11.51002472 0.47806356 -6.39927788 -0.02670817 0 0 Z " fill="#474134" transform="translate(584.875,558.6875)"/>
<path d="M0 0 C4.62 0 9.24 0 14 0 C14.01401855 2.55693604 14.01401855 2.55693604 14.02832031 5.16552734 C14.06401692 10.83345035 14.11792088 16.50101031 14.18390274 22.16866112 C14.22320773 25.60090259 14.25547819 29.03289405 14.27099609 32.46533203 C14.28920838 36.42252691 14.33923374 40.37902937 14.390625 44.3359375 C14.39185364 45.55300385 14.39308228 46.77007019 14.39434814 48.02401733 C14.53726882 56.4349504 15.37924348 64.37924348 21.5625 70.5625 C27.79794384 74.23981303 35.01639108 73.71078233 42 73 C46.23020443 71.65447723 49.78987819 70.09464981 53 67 C56.45343848 59.91753339 56.47118645 53.31677378 56.51171875 45.53125 C56.52966995 44.25519897 56.54762115 42.97914795 56.56611633 41.66442871 C56.61091839 38.297583 56.6433182 34.93109495 56.66955566 31.56408691 C56.69951356 28.11811372 56.74599087 24.67236593 56.79101562 21.2265625 C56.8757912 14.48445941 56.94267321 7.74239009 57 1 C61.62 1 66.24 1 71 1 C71 29.05 71 57.1 71 86 C66.38 86 61.76 86 57 86 C57 83.69 57 81.38 57 79 C56.32195313 79.48210937 55.64390625 79.96421875 54.9453125 80.4609375 C45.64948435 86.76974054 38.90443939 88.34154421 27.75 87.8125 C26.73933472 87.76802734 26.73933472 87.76802734 25.70825195 87.72265625 C19.48808832 87.27951287 14.89041834 85.06475782 10.1875 81.0625 C9.60355469 80.57910156 9.01960937 80.09570312 8.41796875 79.59765625 C7 78 7 78 6.48828125 75.87109375 C6.32714844 75.25363281 6.16601562 74.63617187 6 74 C5.01 73.67 4.02 73.34 3 73 C-0.67854731 57.72870646 -0.34486532 42.56219345 -0.1875 26.9375 C-0.17242046 24.31706501 -0.15873787 21.6966216 -0.14648438 19.07617188 C-0.11375095 12.71723622 -0.06214972 6.3587134 0 0 Z " fill="#484336" transform="translate(798,560)"/>
<path d="M0 0 C4.95 0 9.9 0 15 0 C18.59080965 8.1837057 21.90321515 16.32043126 24.8515625 24.76171875 C26.12961421 28.36547679 27.52897242 31.9039241 28.96875 35.4453125 C31.05055489 40.60251098 33.02614353 45.80072508 35 51 C35.39832031 52.04542969 35.79664063 53.09085938 36.20703125 54.16796875 C36.57183594 55.14378906 36.93664062 56.11960937 37.3125 57.125 C37.80169922 58.42824219 37.80169922 58.42824219 38.30078125 59.7578125 C39 62 39 62 39 65 C39.66 65 40.32 65 41 65 C41.12761719 64.29230469 41.25523437 63.58460938 41.38671875 62.85546875 C43.04741359 55.12318897 46.06660284 47.72883552 49.06640625 40.43359375 C50.2885198 37.24791701 51.21360752 34.00958763 52.09375 30.71484375 C52.89339138 28.31936634 53.81838661 26.11710042 54.859375 23.8203125 C57.0668352 18.94196697 58.93024693 13.97110881 60.75 8.9375 C61.06582031 8.07189453 61.38164063 7.20628906 61.70703125 6.31445312 C62.47416136 4.21065691 63.23748836 2.10547456 64 0 C68.95 0 73.9 0 79 0 C77.30892757 6.76428971 75.26410159 13.00676277 72.5078125 19.40234375 C70.6323943 23.87711102 68.9058109 28.40051269 67.1875 32.9375 C66.84702637 33.83557373 66.50655273 34.73364746 66.15576172 35.65893555 C65.45421077 37.51135088 64.75320768 39.36397378 64.05273438 41.21679688 C58.77403168 55.17255074 53.44522141 69.1083114 48 83 C47.60941406 83.99773437 47.21882812 84.99546875 46.81640625 86.0234375 C45.89409562 88.35612975 44.95253099 90.67951703 44 93 C43.69707031 93.76441406 43.39414062 94.52882813 43.08203125 95.31640625 C39.57477962 103.7767561 35.12604764 110.347607 27.01171875 114.9453125 C21.17061613 116.99083482 15.09215714 116.43863531 9 116 C9 112.04 9 108.08 9 104 C10.52625 103.9175 12.0525 103.835 13.625 103.75 C19.78540021 103.12351862 23.20890119 101.03313919 27.3125 96.375 C31.29048757 90.77635083 30.49369752 84.6649165 30 78 C28.32673979 70.61582992 25.11901566 63.68546554 22.05078125 56.7890625 C20.94649399 53.85798033 20.41579103 51.09787163 20 48 C19.34 48 18.68 48 18 48 C17.61328125 46.87722656 17.2265625 45.75445313 16.828125 44.59765625 C13.29002152 34.35190941 13.29002152 34.35190941 9.0703125 24.375 C7.58411495 21.07716017 6.22689536 17.72943117 4.875 14.375 C4.62105469 13.75286621 4.36710938 13.13073242 4.10546875 12.48974609 C2.44176583 8.34039179 1.23972603 4.3390411 0 0 Z " fill="#484235" transform="translate(939,561)"/>
<path d="M0 0 C0 0.66 0 1.32 0 2 C2.475 2.99 2.475 2.99 5 4 C3.83269511 7.95087809 2.55162546 10.78425284 0 14 C-0.7734375 13.79503906 -1.546875 13.59007812 -2.34375 13.37890625 C-13.5086169 10.49096419 -25.86609111 7.54643645 -37 12 C-39.6469872 13.39685006 -39.6469872 13.39685006 -41 16 C-41.3442647 19.22302988 -41.27538718 22.00652927 -40 25 C-35.49811017 28.82522541 -31.25262049 29.86274614 -25.625 30.875 C-19.29079691 32.15086053 -13.24435686 33.73951225 -7.1875 36 C-6.53668457 36.23702637 -5.88586914 36.47405273 -5.21533203 36.71826172 C1.00082243 39.12214608 5.13653817 42.6187496 9 48 C11.54679612 55.64038836 10.48972637 63.65524137 7.19921875 70.8828125 C5.5294785 73.83069269 3.59699412 75.83583823 1 78 C0.0925 78.886875 -0.815 79.77375 -1.75 80.6875 C-10.32150902 86.78645834 -22.91936091 85.85592351 -33 85 C-42.96494498 83.21583895 -50.00384486 79.14455843 -57 72 C-55.64978174 67.58110387 -53.73884332 65.65654657 -50 63 C-47.08295771 64.02954434 -44.83589249 65.11831007 -42.3125 66.9375 C-34.08853709 72.05808068 -24.88410483 73.33944121 -15.41015625 71.49609375 C-11.74748118 70.4572475 -9.5361264 69.58486517 -6.9375 66.75 C-5.5492244 62.67772492 -5.28336163 59.00061545 -6.75 54.90625 C-11.0858204 48.2941239 -25.25199934 47.43173045 -32.56176758 45.83813477 C-42.31008642 43.65634675 -48.05128894 40.13172429 -54 32 C-56.73927681 25.60835412 -57.02144586 18.52561736 -54.9375 11.875 C-52.207126 5.55865092 -47.60375282 1.38026913 -41.375 -1.4375 C-28.36862195 -5.59954097 -12.893148 -3.64041826 0 0 Z " fill="#484235" transform="translate(690,562)"/>
<path d="M0 0 C11.1700966 7.0216224 11.1700966 7.0216224 13 13 C10.69 15.31 8.38 17.62 6 20 C0.53125 16.2890625 0.53125 16.2890625 -1 15 C-1 14.34 -1 13.68 -1 13 C-9.86521833 9.49563134 -19.65412576 8.17724889 -28.9375 10.84375 C-36.53580957 14.27225554 -42.36037021 20.51853876 -46 28 C-48.85642329 39.54988549 -47.90350552 49.7435489 -42.1328125 59.98828125 C-37.65398324 66.3127819 -32.46413053 69.97535459 -25 72 C-14.25921969 73.01477311 -7.7261406 71.29093857 1 65 C1.66 64.34 2.32 63.68 3 63 C7.13263259 63.34438605 10.38108204 65.06429969 14 67 C14 71.92459644 12.8134345 72.91288802 9.65625 76.3828125 C6.60416144 79.36291784 4.29798772 81 0 81 C0 81.66 0 82.32 0 83 C-13.0282294 87.38625759 -26.34155521 87.6609117 -38.9140625 81.59375 C-49.54524827 75.38490322 -57.7621998 64.95495458 -61 53 C-63.5338872 40.58395271 -62.65056359 28.05821487 -56.24609375 16.9609375 C-54.59399894 14.5121122 -52.99608114 12.17799001 -51 10 C-50.34 10 -49.68 10 -49 10 C-48.690625 9.13375 -48.690625 9.13375 -48.375 8.25 C-46.48374778 5.15522364 -44.09964063 3.8081237 -41 2 C-40.34 2 -39.68 2 -39 2 C-39 1.34 -39 0.68 -39 0 C-26.78931686 -5.27012143 -11.87404667 -7.08103448 0 0 Z " fill="#474134" transform="translate(771,562)"/>
<path d="M0 0 C1.175625 0.01353516 1.175625 0.01353516 2.375 0.02734375 C4.29180055 0.05071937 6.20844191 0.08658347 8.125 0.125 C8.125 4.415 8.125 8.705 8.125 13.125 C5.093125 13.0321875 5.093125 13.0321875 2 12.9375 C-3.04856822 12.9375 -6.6683373 13.05527316 -10.875 16.125 C-13.31519371 19.78529057 -13.54622213 23.05928668 -14 27.3125 C-14.28875 29.890625 -14.5775 32.46875 -14.875 35.125 C-7.285 35.125 0.305 35.125 8.125 35.125 C8.125 39.415 8.125 43.705 8.125 48.125 C0.205 48.125 -7.715 48.125 -15.875 48.125 C-15.875 72.215 -15.875 96.305 -15.875 121.125 C-20.495 121.125 -25.115 121.125 -29.875 121.125 C-29.875 97.035 -29.875 72.945 -29.875 48.125 C-34.165 48.125 -38.455 48.125 -42.875 48.125 C-42.875 43.835 -42.875 39.545 -42.875 35.125 C-38.585 35.125 -34.295 35.125 -29.875 35.125 C-29.936875 32.6190625 -29.936875 32.6190625 -30 30.0625 C-29.96824624 21.77476824 -27.73463705 14.85749465 -22.875 8.125 C-16.04543147 1.50665523 -9.2802035 -0.20447906 0 0 Z " fill="#4B4539" transform="translate(924.875,524.875)"/>
<path d="M0 0 C6.27 -0.061875 12.54 -0.12375 19 -0.1875 C21.94486328 -0.22846802 21.94486328 -0.22846802 24.94921875 -0.27026367 C26.5286396 -0.27903648 28.10806731 -0.28667853 29.6875 -0.29296875 C30.88922852 -0.3159906 30.88922852 -0.3159906 32.11523438 -0.33947754 C38.34740595 -0.34233459 43.9620857 0.63066143 49.0234375 4.578125 C53.98667515 10.71762129 55.51959305 16.64378794 55.3046875 24.51171875 C54.56550836 30.54834842 51.91994687 34.56917716 47.25 38.375 C41.20234713 42.92344481 33.84333466 43.29953545 26.5625 43.1953125 C25.88251953 43.19329834 25.20253906 43.19128418 24.50195312 43.18920898 C22.00123185 43.17887312 19.50060797 43.15095231 17 43.125 C11.39 43.08375 5.78 43.0425 0 43 C0 28.81 0 14.62 0 0 Z " fill="#FBFBFA" transform="translate(467,544)"/>
<path d="M0 0 C2.97 0 5.94 0 9 0 C9.67580829 4.01935181 10.33900261 8.04068815 11 12.0625 C11.19078125 13.19623047 11.3815625 14.32996094 11.578125 15.49804688 C12.48679524 21.0636521 13.26201086 26.35857867 13 32 C13.66 32 14.32 32 15 32 C15.71753463 36.87389211 16.4294329 41.74856267 17.13623047 46.62402344 C17.3772135 48.28082222 17.61970718 49.93740203 17.86376953 51.59375 C18.21528768 53.98120384 18.56127901 56.36940494 18.90625 58.7578125 C19.07030334 59.85973434 19.07030334 59.85973434 19.2376709 60.98391724 C19.81520952 65.024073 20.11225335 68.91959058 20 73 C20.66 73 21.32 73 22 73 C22.19916016 74.71509766 22.19916016 74.71509766 22.40234375 76.46484375 C22.5805031 77.9557562 22.75890082 79.44664018 22.9375 80.9375 C23.06801758 82.06961914 23.06801758 82.06961914 23.20117188 83.22460938 C23.34324099 86.92187458 23.34324099 86.92187458 25 90 C27.90014606 76.37017409 30.70285556 62.74551468 33 49 C52.35573799 48.82658539 71.65893718 49.3255829 91 50 C91 52.31 91 54.62 91 57 C73.63651131 57.13235918 56.34360216 56.85300123 39 56 C38.86722656 56.94101562 38.73445313 57.88203125 38.59765625 58.8515625 C38.42105469 60.09679687 38.24445313 61.34203125 38.0625 62.625 C37.88847656 63.85476563 37.71445312 65.08453125 37.53515625 66.3515625 C37.06225699 69.57556184 36.54848998 72.78812176 36 76 C35.34 76 34.68 76 34 76 C34.0515625 76.88816406 34.103125 77.77632812 34.15625 78.69140625 C34.15625 84.54981579 32.70027553 90.23132523 31.5 95.9375 C31.26152344 97.09830078 31.02304687 98.25910156 30.77734375 99.45507812 C30.19100025 102.30470751 29.59838855 105.15288 29 108 C26.03 108 23.06 108 20 108 C19.82871582 106.98687744 19.65743164 105.97375488 19.48095703 104.92993164 C18.83842064 101.133149 18.19283934 97.33688912 17.54638672 93.54077148 C17.26822562 91.90484254 16.99086539 90.2687772 16.71435547 88.63256836 C15.0610542 78.47757257 15.0610542 78.47757257 12.9609375 68.41015625 C11.16920189 60.76871152 10.29484251 52.89681058 9.17724609 45.1328125 C8.86177855 42.94991111 8.54052066 40.76791736 8.21875 38.5859375 C8.03248047 37.2973584 7.84621094 36.0087793 7.65429688 34.68115234 C7.00370051 31.02081949 6.073551 27.55664779 5 24 C4.60825846 22.35807097 4.23042167 20.71267205 3.875 19.0625 C3.62363281 17.90427734 3.62363281 17.90427734 3.3671875 16.72265625 C3.24601562 16.15417969 3.12484375 15.58570313 3 15 C2.34 16.65 1.68 18.3 1 20 C0.34 20 -0.32 20 -1 20 C-1.10957031 20.54527344 -1.21914063 21.09054687 -1.33203125 21.65234375 C-2.51009937 27.25535065 -4.087035 32.6054387 -6 38 C-6.66 38 -7.32 38 -8 38 C-8.12117188 38.59167969 -8.24234375 39.18335938 -8.3671875 39.79296875 C-9.26744643 44.03803585 -10.20456621 48.02439661 -12 52 C-12.66 52 -13.32 52 -14 52 C-14.2475 52.928125 -14.495 53.85625 -14.75 54.8125 C-16.08925849 58.22760915 -16.85842485 59.24441389 -20 61 C-21.75 61.6875 -21.75 61.6875 -24 62 C-24.62390625 62.08765625 -25.2478125 62.1753125 -25.890625 62.265625 C-28.07891738 62.4439303 -29.8529278 62.47419999 -32 62 C-34.5625 59.1875 -34.5625 59.1875 -36 56 C-35.67 55.01 -35.34 54.02 -35 53 C-34.67 53.66 -34.34 54.32 -34 55 C-32.24919913 54.96679516 -30.49906579 54.89720607 -28.75 54.8125 C-27.77546875 54.77769531 -26.8009375 54.74289062 -25.796875 54.70703125 C-21.94046086 53.73215561 -21.07299867 52.37301478 -19 49 C-17.74642822 46.11404141 -16.7317735 43.17539741 -15.75 40.1875 C-15.481875 39.39923828 -15.21375 38.61097656 -14.9375 37.79882812 C-14.28251673 35.8689667 -13.63998468 33.93488703 -13 32 C-12.34 32 -11.68 32 -11 32 C-10.87882812 31.41992188 -10.75765625 30.83984375 -10.6328125 30.2421875 C-9.66264526 25.71971558 -8.56602217 21.36249034 -7 17 C-6.34 17 -5.68 17 -5 17 C-4.83564453 16.1646875 -4.83564453 16.1646875 -4.66796875 15.3125 C-3.55724752 9.96658969 -2.02774474 5.06936184 0 0 Z " fill="#F23830" transform="translate(303,553)"/>
<path d="M0 0 C6.17645538 3.43773027 10.03031708 9.58021677 12.10546875 16.171875 C12.10546875 18.151875 12.10546875 20.131875 12.10546875 22.171875 C-3.73453125 22.171875 -19.57453125 22.171875 -35.89453125 22.171875 C-35.89453125 17.171875 -35.89453125 17.171875 -33.89453125 15.171875 C-33.50265625 14.12 -33.11078125 13.068125 -32.70703125 11.984375 C-30.28223229 6.14779862 -25.95539131 2.37728371 -20.58203125 -0.765625 C-13.63364559 -2.76770222 -6.79782197 -2.55068718 0 0 Z " fill="#F8F7F6" transform="translate(596.89453125,572.828125)"/>
<path d="M0 0 C4.62 0 9.24 0 14 0 C14 20.46 14 40.92 14 62 C13.67 62 13.34 62 13 62 C12.27555306 58.10023593 11.87698988 54.41823083 11.88647461 50.45361328 C11.88655014 49.39296661 11.88662567 48.33231995 11.88670349 47.23953247 C11.89186478 46.11118988 11.89702606 44.98284729 11.90234375 43.8203125 C11.9037587 42.6524118 11.90517365 41.48451111 11.90663147 40.28121948 C11.91221502 36.56245326 11.92476456 32.84374793 11.9375 29.125 C11.94251712 26.5989592 11.94707966 24.07291746 11.95117188 21.546875 C11.96217907 15.36455998 11.97943245 9.18229031 12 3 C8.7 3 5.4 3 2 3 C2 20.82 2 38.64 2 57 C1.34 56.67 0.68 56.34 0 56 C0 37.52 0 19.04 0 0 Z " fill="#3F3A30" transform="translate(798,560)"/>
<path d="M0 0 C2 2 2 2 2 16 C-18.13 16 -38.26 16 -59 16 C-59.33 15.34 -59.66 14.68 -60 14 C-40.2 14 -20.4 14 0 14 C0 9.38 0 4.76 0 0 Z " fill="#373224" transform="translate(621,591)"/>
<path d="M0 0 C7.26 0 14.52 0 22 0 C22 3.63 22 7.26 22 11 C14.41 11 6.82 11 -1 11 C-1 10.67 -1 10.34 -1 10 C5.93 10 12.86 10 20 10 C20 7.36 20 4.72 20 2 C13.07 2 6.14 2 -1 2 C-0.67 1.34 -0.34 0.68 0 0 Z " fill="#373326" transform="translate(911,561)"/>
<path d="M0 0 C3.96 0 7.92 0 12 0 C12 4.29 12 8.58 12 13 C9.999375 12.95875 7.99875 12.9175 5.9375 12.875 C0.84206712 12.8638746 -3.24005753 13.22885862 -8 15 C-4.97326379 11.76452337 -3.10378995 10.08282638 1.48046875 9.90234375 C2.82044922 9.91974609 2.82044922 9.91974609 4.1875 9.9375 C5.08855469 9.94652344 5.98960937 9.95554687 6.91796875 9.96484375 C7.60503906 9.97644531 8.29210937 9.98804688 9 10 C9.33 7.36 9.66 4.72 10 2 C6.7 2 3.4 2 0 2 C0 1.34 0 0.68 0 0 Z " fill="#3A352A" transform="translate(921,525)"/>
<path d="M0 0 C4.95 0 9.9 0 15 0 C14.34 2.31 13.68 4.62 13 7 C12.67 5.68 12.34 4.36 12 3 C9.03 3 6.06 3 3 3 C0.82168139 7.2840266 -1.31057815 11.49487506 -3 16 C-5.11057901 10.53107829 -1.86018675 5.18597517 0 0 Z " fill="#3B352A" transform="translate(1003,561)"/>
<path d="M0 0 C2.46695038 2.20362421 3.4814537 4.10942065 4.75 7.125 C5.90865587 9.36981869 5.90865587 9.36981869 8 11 C13.03277714 12.02052045 17.87909432 12.10306225 23 12 C23 12.66 23 13.32 23 14 C17.39 14 11.78 14 6 14 C0 2.25 0 2.25 0 0 Z " fill="#3D3A31" transform="translate(515,632)"/>
<path d="M0 0 C0.81082031 0.08378906 1.62164063 0.16757812 2.45703125 0.25390625 C9.80295675 0.92949195 16.68433886 0.95294183 24 0 C20.21619923 4.13887885 16.52716816 3.92727771 11.0625 4.1875 C7.08377424 4.14916931 3.76359639 3.25453213 0 2 C0 1.34 0 0.68 0 0 Z " fill="#3C372B" transform="translate(819,644)"/>
<path d="M0 0 C4.95 0 9.9 0 15 0 C15.33 1.98 15.66 3.96 16 6 C15.34 5.67 14.68 5.34 14 5 C14 4.01 14 3.02 14 2 C10.37 2.33 6.74 2.66 3 3 C2.67 3.99 2.34 4.98 2 6 C1.34 4.02 0.68 2.04 0 0 Z " fill="#393428" transform="translate(939,561)"/>
<path d="M0 0 C10.395 0.99 10.395 0.99 21 2 C20.67 2.66 20.34 3.32 20 4 C6.3667426 4.55353075 6.3667426 4.55353075 0 1 C0 0.67 0 0.34 0 0 Z " fill="#343025" transform="translate(653,633)"/>
<path d="M0 0 C6.6 0.33 13.2 0.66 20 1 C20 1.66 20 2.32 20 3 C17.41603321 3.08112454 14.83462432 3.14054748 12.25 3.1875 C11.52039063 3.21263672 10.79078125 3.23777344 10.0390625 3.26367188 C5.21268124 3.32948616 4.05133161 3.03849871 0 0 Z " fill="#353228" transform="translate(653,644)"/>
<path d="M0 0 C4.62 0 9.24 0 14 0 C9.5 3.375 9.5 3.375 6 4 C6 4.66 6 5.32 6 6 C5.01 5.67 4.02 5.34 3 5 C3.33 4.01 3.66 3.02 4 2 C2.68 1.34 1.36 0.68 0 0 Z " fill="#F2453E" transform="translate(324,448)"/>
<path d="M0 0 C-0.66 0 -1.32 0 -2 0 C-2 0.66 -2 1.32 -2 2 C-6.67201205 3.20568053 -11.21496292 3.09382426 -16 3 C-15.67 2.34 -15.34 1.68 -15 1 C-12.3828125 0.33203125 -12.3828125 0.33203125 -9.125 -0.1875 C-8.05507813 -0.36667969 -6.98515625 -0.54585937 -5.8828125 -0.73046875 C-3 -1 -3 -1 0 0 Z " fill="#3D382B" transform="translate(767,645)"/>
<path d="M0 0 C0.66 1.32 1.32 2.64 2 4 C2.66 4 3.32 4 4 4 C5.40234375 5.8984375 5.40234375 5.8984375 6.9375 8.375 C8.86587629 11.48210246 9.89723073 12.93148715 13 15 C12.67 15.66 12.34 16.32 12 17 C6.75361498 12.81053235 2.83495807 9.14240915 0 3 C0 2.01 0 1.02 0 0 Z " fill="#363227" transform="translate(714,621)"/>
<path d="M0 0 C0 0.66 0 1.32 0 2 C1.32 2.33 2.64 2.66 4 3 C3.31292969 3.26554688 2.62585938 3.53109375 1.91796875 3.8046875 C1.01691406 4.15789063 0.11585938 4.51109375 -0.8125 4.875 C-1.70582031 5.22304688 -2.59914063 5.57109375 -3.51953125 5.9296875 C-6.17711591 6.98832155 -6.17711591 6.98832155 -9 9 C-8.09729807 5.30712847 -7.59508949 3.44631711 -4.5 1.125 C-2 0 -2 0 0 0 Z " fill="#524A3F" transform="translate(914,526)"/>
<path d="M0 0 C3.3 0 6.6 0 10 0 C9 2 9 2 6.625 3.125 C4 4 4 4 1 4 C1 4.66 1 5.32 1 6 C0.01 5.67 -0.98 5.34 -2 5 C-1.34 5 -0.68 5 0 5 C0 3.68 0 2.36 0 1 C0 0.67 0 0.34 0 0 Z " fill="#F24F4A" transform="translate(395,735)"/>
<path d="M0 0 C0.515625 0.70125 1.03125 1.4025 1.5625 2.125 C4.41939716 5.49467357 7.58871997 8.21156604 11 11 C10.01 11.495 10.01 11.495 9 12 C4.96337318 10.08791361 2.4502344 7.72072631 0 4 C0 2.68 0 1.36 0 0 Z " fill="#373327" transform="translate(637,591)"/>
<path d="M0 0 C0.33 0 0.66 0 1 0 C1.06058594 0.61488281 1.12117187 1.22976563 1.18359375 1.86328125 C1.26738281 2.67152344 1.35117187 3.47976563 1.4375 4.3125 C1.51871094 5.11300781 1.59992187 5.91351562 1.68359375 6.73828125 C1.95265693 9.16087179 1.95265693 9.16087179 3 12 C1.68 13.32 0.36 14.64 -1 16 C-1.66 15.67 -2.32 15.34 -3 15 C-2.52433594 14.18789063 -2.52433594 14.18789063 -2.0390625 13.359375 C-0.81692026 10.5842851 -0.59056564 8.26791902 -0.375 5.25 C-0.30023437 4.26515625 -0.22546875 3.2803125 -0.1484375 2.265625 C-0.09945312 1.51796875 -0.05046875 0.7703125 0 0 Z " fill="#655F58" transform="translate(970,642)"/>
<path d="M0 0 C0.66 0.33 1.32 0.66 2 1 C0.7260411 3.03833424 -0.61061923 5.03852126 -2 7 C-2.66 7 -3.32 7 -4 7 C-4.33 7.66 -4.66 8.32 -5 9 C-5.66 9 -6.32 9 -7 9 C-5.44499019 5.18315774 -2.96404505 2.80804268 0 0 Z " fill="#554C43" transform="translate(644,563)"/>
<path d="M0 0 C4.1724106 0.51881113 6.25416821 1.71151274 9.3125 4.5625 C10.00988281 5.20316406 10.70726562 5.84382812 11.42578125 6.50390625 C11.94527344 6.99761719 12.46476563 7.49132812 13 8 C12.67 8.99 12.34 9.98 12 11 C11.505 10.278125 11.01 9.55625 10.5 8.8125 C7.78392011 5.75691012 5.11728398 4.03843383 1.609375 2.015625 C1.07828125 1.68046875 0.5471875 1.3453125 0 1 C0 0.67 0 0.34 0 0 Z " fill="#353227" transform="translate(517,536)"/>
<path d="M0 0 C3.08842997 0.8940192 4.63399045 1.41771208 6.375 4.1875 C7.1567051 7.70517295 6.68853474 10.48847281 6 14 C5.67 14 5.34 14 5 14 C4.96132813 13.11248047 4.96132813 13.11248047 4.921875 12.20703125 C4.54295586 6.9279987 3.89363339 3.89363339 0 0 Z " fill="#353025" transform="translate(681,613)"/>
<path d="M0 0 C-3.92826365 2.77675038 -6.53124892 3.34512366 -11.3125 3.1875 C-12.91544922 3.14689453 -12.91544922 3.14689453 -14.55078125 3.10546875 C-15.35902344 3.07066406 -16.16726563 3.03585937 -17 3 C-17 2.67 -17 2.34 -17 2 C-16.32453125 1.95101562 -15.6490625 1.90203125 -14.953125 1.8515625 C-14.06109375 1.77679687 -13.1690625 1.70203125 -12.25 1.625 C-11.36828125 1.55539062 -10.4865625 1.48578125 -9.578125 1.4140625 C-6.99080206 1.1355049 -6.99080206 1.1355049 -4.859375 -0.1015625 C-3 -1 -3 -1 0 0 Z " fill="#413B32" transform="translate(965,663)"/>
<path d="M0 0 C0.66 0 1.32 0 2 0 C1.45660208 4.56454251 0.20536179 7.9728176 -2 12 C-3.12377697 8.69564916 -2.89554742 6.9493138 -1.5625 3.75 C-1.27503906 3.04359375 -0.98757813 2.3371875 -0.69140625 1.609375 C-0.46324219 1.07828125 -0.23507812 0.5471875 0 0 Z " fill="#353026" transform="translate(990,597)"/>
<path d="M0 0 C3.82792868 1.5595265 6.36359864 3.83631836 9 7 C8.8125 9.3125 8.8125 9.3125 8 11 C7.4225 10.071875 6.845 9.14375 6.25 8.1875 C4.26014978 5.36854553 2.73611987 3.95437133 0 2 C0 1.34 0 0.68 0 0 Z " fill="#373427" transform="translate(688,601)"/>
<path d="M0 0 C0.88336837 2.4667645 1.1312406 3.63859372 0.22265625 6.140625 C-0.16019531 6.83671875 -0.54304687 7.5328125 -0.9375 8.25 C-1.31777344 8.95640625 -1.69804688 9.6628125 -2.08984375 10.390625 C-2.39019531 10.92171875 -2.69054687 11.4528125 -3 12 C-3.88336837 9.5332355 -4.1312406 8.36140628 -3.22265625 5.859375 C-2.83980469 5.16328125 -2.45695313 4.4671875 -2.0625 3.75 C-1.68222656 3.04359375 -1.30195312 2.3371875 -0.91015625 1.609375 C-0.60980469 1.07828125 -0.30945313 0.5471875 0 0 Z " fill="#342F25" transform="translate(985,613)"/>
<path d="M0 0 C1.27310312 0.93441535 2.543388 1.87267111 3.8125 2.8125 C4.52019531 3.33457031 5.22789062 3.85664062 5.95703125 4.39453125 C7.78531393 5.83128877 9.39896688 7.31815763 11 9 C6.02639643 7.72768281 3.32703078 5.91415386 0 2 C0 1.34 0 0.68 0 0 Z " fill="#363327" transform="translate(566,624)"/>
<path d="M0 0 C0.66 0.33 1.32 0.66 2 1 C0.8125 3.4375 0.8125 3.4375 -1 6 C-3.6875 6.8125 -3.6875 6.8125 -6 7 C-5.67 6.34 -5.34 5.68 -5 5 C-4.34 5 -3.68 5 -3 5 C-2.5359375 4.0409375 -2.5359375 4.0409375 -2.0625 3.0625 C-1 1 -1 1 0 0 Z " fill="#524B42" transform="translate(725,567)"/>
<path d="M0 0 C2.72426311 2.35277269 3.8141763 4.62496331 5 8 C4.01 8 3.02 8 2 8 C0.23537317 4.91190305 0 3.76687864 0 0 Z " fill="#504C41" transform="translate(527,628)"/>
<path d="M0 0 C3.37462715 0.54723683 5.08235 1.0549 8 3 C7.67 3.99 7.34 4.98 7 6 C5.83054208 5.19152271 4.66449539 4.37810888 3.5 3.5625 C2.8503125 3.11003906 2.200625 2.65757812 1.53125 2.19140625 C1.0259375 1.79824219 0.520625 1.40507813 0 1 C0 0.67 0 0.34 0 0 Z " fill="#4F4D42" transform="translate(770,576)"/>
<path d="M0 0 C0 0.99 0 1.98 0 3 C-2.8125 4.5625 -2.8125 4.5625 -6 6 C-6.99 5.67 -7.98 5.34 -9 5 C-6.03 3.35 -3.06 1.7 0 0 Z " fill="#363227" transform="translate(777,638)"/>
<path d="M0 0 C0.99 0 1.98 0 3 0 C1.92598892 2.91517292 1.22189824 4.77810176 -1 7 C-1.99 6.67 -2.98 6.34 -4 6 C-3.34 5.195625 -2.68 4.39125 -2 3.5625 C0.10254514 1.41038085 0.10254514 1.41038085 0 0 Z " fill="#3D392E" transform="translate(783,630)"/>
<path d="M0 0 C0.33 0.66 0.66 1.32 1 2 C4.63 2 8.26 2 12 2 C12 2.33 12 2.66 12 3 C8.37 3 4.74 3 1 3 C0.67 3.66 0.34 4.32 0 5 C-0.5625 3.0625 -0.5625 3.0625 -1 1 C-0.67 0.67 -0.34 0.34 0 0 Z " fill="#F56865" transform="translate(268,606)"/>
<path d="M0 0 C0.66 0 1.32 0 2 0 C3.85776765 3.13498292 4.20140476 5.37471432 4 9 C3.67 8.01 3.34 7.02 3 6 C2.34 6 1.68 6 1 6 C0.67 4.02 0.34 2.04 0 0 Z " fill="#3B3729" transform="translate(965,595)"/>
<path d="M0 0 C3 3.875 3 3.875 3 5 C1.02 5 -0.96 5 -3 5 C-2.67 4.01 -2.34 3.02 -2 2 C-1.34 2 -0.68 2 0 2 C0 1.34 0 0.68 0 0 Z " fill="#555045" transform="translate(534,639)"/>
<path d="M0 0 C0.66 0.33 1.32 0.66 2 1 C2.33 1.99 2.66 2.98 3 4 C4.49985609 5.66710346 4.49985609 5.66710346 6 7 C3 7 3 7 0.8125 5 C0.214375 4.34 -0.38375 3.68 -1 3 C-0.67 2.01 -0.34 1.02 0 0 Z " fill="#353024" transform="translate(634,631)"/>
<path d="M0 0 C0.33 0 0.66 0 1 0 C1 2.64 1 5.28 1 8 C0.34 8 -0.32 8 -1 8 C-1.33 8.66 -1.66 9.32 -2 10 C-1.54177532 6.53058454 -1.10868317 3.32604951 0 0 Z " fill="#605953" transform="translate(712,584)"/>
<path d="M0 0 C0.66 0.33 1.32 0.66 2 1 C0.8125 2.5 0.8125 2.5 -1 4 C-3.6875 4.1875 -3.6875 4.1875 -6 4 C-3.94766315 1.7522025 -2.99332739 0.9977758 0 0 Z " fill="#5C544C" transform="translate(573,560)"/>
</svg>
