<?xml version="1.0" standalone="no"?>
<!DOCTYPE svg PUBLIC "-//W3C//DTD SVG 20010904//EN"
 "http://www.w3.org/TR/2001/REC-SVG-20010904/DTD/svg10.dtd">
<svg version="1.0" xmlns="http://www.w3.org/2000/svg"
 width="1024.000000pt" height="1024.000000pt" viewBox="0 0 1024.000000 1024.000000"
 preserveAspectRatio="xMidYMid meet">

<g transform="translate(0.000000,1024.000000) scale(0.100000,-0.100000)"
fill="#000000" stroke="none">
<path d="M6295 8765 c-48 -47 -38 -63 128 -234 84 -86 191 -203 237 -261 372
-466 579 -1012 580 -1525 0 -214 36 -329 134 -434 64 -68 148 -123 234 -153
65 -22 78 -23 402 -23 l335 0 79 28 c71 25 354 171 594 307 102 57 137 96 127
140 -4 14 -58 146 -122 293 -79 183 -124 274 -141 287 -51 41 -66 34 -484
-193 -86 -47 -177 -93 -203 -102 -107 -41 -248 22 -298 134 -9 19 -13 202 -17
656 -5 629 -5 630 -27 672 -27 49 -62 72 -225 145 -296 133 -721 243 -1077
278 -174 17 -228 14 -256 -15z"/>
<path d="M2274 8609 c-128 -40 -218 -129 -256 -253 -57 -188 43 -387 234 -464
39 -16 138 -17 1168 -22 l1125 -6 105 -26 c278 -70 468 -176 643 -357 273
-284 405 -684 357 -1081 -63 -508 -381 -913 -828 -1054 -182 -57 -192 -58
-1022 -61 -421 -1 -811 0 -867 4 -113 7 -141 20 -178 82 -19 33 -20 57 -25
779 l-5 745 -33 67 c-38 77 -92 130 -171 167 -49 23 -68 26 -161 26 -91 0
-112 -3 -155 -25 -64 -31 -134 -101 -165 -165 l-25 -50 0 -2000 0 -2000 27
-57 c34 -73 98 -137 174 -173 51 -25 71 -29 149 -30 77 0 98 4 147 27 76 35
151 107 185 177 l28 56 5 735 c6 822 1 774 77 822 l38 23 960 6 c1030 7 986 4
1199 59 701 182 1239 787 1381 1555 107 582 5 1116 -302 1572 -296 440 -756
757 -1298 892 -197 49 -242 51 -1383 50 -1029 0 -1069 -1 -1128 -20z"/>
<path d="M4177 7125 c-135 -37 -274 -150 -336 -274 -154 -304 17 -670 354
-756 298 -76 609 131 657 438 41 265 -139 530 -403 592 -77 18 -206 18 -272 0z"/>
<path d="M6848 5345 c-18 -10 -44 -50 -83 -126 -61 -119 -180 -302 -270 -414
-76 -95 -250 -270 -364 -366 -196 -164 -511 -349 -817 -479 -129 -55 -154 -75
-154 -123 0 -28 51 -82 463 -495 254 -255 484 -482 510 -503 59 -48 105 -52
142 -14 l25 24 0 416 c0 334 3 422 14 449 10 23 46 58 116 111 297 225 524
458 673 691 25 40 51 76 59 80 7 5 418 11 913 14 l900 5 58 28 c74 37 147 110
183 184 25 52 28 69 29 158 0 91 -3 105 -30 158 -38 76 -126 158 -202 189
l-58 23 -1040 2 c-893 2 -1044 0 -1067 -12z"/>
<path d="M3775 3814 c-117 -38 -218 -142 -245 -255 -19 -78 -8 -188 26 -257
29 -59 304 -336 1179 -1187 209 -204 489 -477 621 -608 276 -270 310 -294 446
-304 158 -11 315 86 399 247 33 63 34 196 2 255 -12 23 -165 180 -359 370
-186 182 -645 635 -1022 1007 -781 774 -737 738 -907 744 -63 3 -105 -1 -140
-12z"/>
<path d="M7570 3774 c-241 -63 -434 -272 -479 -518 -7 -40 -11 -322 -11 -850
0 -766 1 -792 20 -823 52 -87 137 -91 310 -16 245 107 367 171 392 205 l23 33
5 540 5 540 25 45 c15 27 45 58 74 78 42 28 56 32 114 32 62 0 75 -5 276 -101
368 -177 404 -192 441 -185 21 4 41 17 53 34 10 15 72 144 137 287 89 194 119
271 119 301 1 48 -19 75 -67 95 -18 7 -151 65 -297 129 -455 200 -412 190
-795 189 -219 0 -303 -4 -345 -15z"/>
</g>
</svg>
